<svg xmlns="http://www.w3.org/2000/svg" xml:space="preserve" width="176.558" height="252.9"><g style="opacity:1;fill:none;fill-rule:nonzero;stroke:none;stroke-width:0;stroke-linecap:butt;stroke-linejoin:miter;stroke-miterlimit:10;stroke-dasharray:none"><path d="M45 0C27.677 0 13.584 14.093 13.584 31.416a31.13 31.13 0 0 0 3.175 13.773c2.905 5.83 11.408 20.207 20.412 35.428l4.385 7.417A4 4 0 0 0 45 90a4 4 0 0 0 3.444-1.966l4.382-7.413c8.943-15.116 17.392-29.4 20.353-35.31.027-.05.055-.102.08-.154a31.143 31.143 0 0 0 3.157-13.74C76.416 14.092 62.323 0 45 0zm0 14.941c8.474 0 15.368 6.895 15.368 15.37 0 8.473-6.894 15.367-15.368 15.367S29.63 38.784 29.63 30.31 36.527 14.941 45 14.941z" style="opacity:.8;fill:#ff7a00;fill-rule:nonzero;stroke:none;stroke-width:1;stroke-linecap:butt;stroke-linejoin:miter;stroke-miterlimit:10;stroke-dasharray:none;fill-opacity:1" transform="translate(-38.171) scale(2.81)"/></g></svg>