<?xml version="1.0" encoding="UTF-8" standalone="no"?>
<!-- Created with Inkscape (http://www.inkscape.org/) -->

<svg
   width="132.62683mm"
   height="98.157822mm"
   viewBox="0 0 132.62683 98.157822"
   version="1.1"
   id="svg1"
   inkscape:version="1.3 (0e150ed6c4, 2023-07-21)"
   sodipodi:docname="logo.svg"
   xmlns:inkscape="http://www.inkscape.org/namespaces/inkscape"
   xmlns:sodipodi="http://sodipodi.sourceforge.net/DTD/sodipodi-0.dtd"
   xmlns="http://www.w3.org/2000/svg"
   xmlns:svg="http://www.w3.org/2000/svg">
  <sodipodi:namedview
     id="namedview1"
     pagecolor="#ffffff"
     bordercolor="#666666"
     borderopacity="1.0"
     inkscape:showpageshadow="2"
     inkscape:pageopacity="0.0"
     inkscape:pagecheckerboard="0"
     inkscape:deskcolor="#d1d1d1"
     inkscape:document-units="mm"
     showguides="true"
     inkscape:zoom="0.5007929"
     inkscape:cx="170.72926"
     inkscape:cy="30.950918"
     inkscape:window-width="1920"
     inkscape:window-height="991"
     inkscape:window-x="-9"
     inkscape:window-y="-9"
     inkscape:window-maximized="1"
     inkscape:current-layer="layer1">
    <sodipodi:guide
       position="22.542283,280.56349"
       orientation="1,0"
       id="guide6"
       inkscape:locked="false" />
    <sodipodi:guide
       position="110.33473,256.46726"
       orientation="1,0"
       id="guide7"
       inkscape:locked="false" />
    <sodipodi:guide
       position="66.064922,244.51254"
       orientation="1,0"
       id="guide8"
       inkscape:locked="false" />
    <sodipodi:guide
       position="-0.059602577,287.47481"
       orientation="1,0"
       id="guide9"
       inkscape:locked="false" />
    <sodipodi:guide
       position="133.3102,250.86349"
       orientation="1,0"
       id="guide10"
       inkscape:locked="false" />
  </sodipodi:namedview>
  <defs
     id="defs1" />
  <g
     inkscape:label="Layer 1"
     inkscape:groupmode="layer"
     id="layer1"
     transform="translate(-46.197337,-64.07103)">
    <path
       id="path3086"
       d="m 82.930224,97.115341 c 1.709488,-1.705063 3.98495,-2.399948 6.18343,-2.478288 -5.358391,-1.36494 -6.087287,0.4221 -7.460274,3.501397 3.877356,-1.398154 4.340158,0.215188 7.942123,-2.997894 -2.384417,-0.107592 -4.690491,0.451351 -6.665279,1.974785 z m 25.566356,-8.349934 c -1.61255,-1.506659 -4.39118,-3.909215 -6.95008,-4.234833 -4.915885,2.478862 -5.512471,0.430944 -11.096253,1.226846 2.925222,-4.063405 4.524848,-6.442947 11.903603,-2.841097 -3.220112,-0.54874 -6.737839,-0.224485 -9.73925,1.737833 3.020458,-1.468111 6.196238,-1.701553 9.32214,-1.079229 0.52346,0.01022 1.06687,0.09297 1.62888,0.247046 0.68819,0.190926 1.40394,0.491148 2.1453,0.902591 -0.4628,-0.546475 -0.93898,-1.054402 -1.4274,-1.521286 -2.91638,-2.787809 -6.338872,-4.910554 -9.846962,-4.565548 l -0.07574,-0.773228 c 2.176711,-0.214394 4.28801,0.135938 6.285362,1.005308 -1.013362,-2.786562 -0.50532,-5.488547 1.07832,-7.969105 l 0.65554,0.417111 c -1.81402,2.842458 -1.15463,6.04885 0.66654,8.881896 0.79443,0.53854 1.5655,1.165623 2.30823,1.876493 2.2843,2.184762 4.31181,5.168826 5.97175,8.851288 l 0.0952,-5.662125 c -0.38004,-1.964586 -1.30382,-4.107739 -2.1249,-5.449999 -4.10773,-2.538156 -2.77647,-3.733481 -5.64851,-7.361523 3.9651,0.380831 6.24011,0.527426 6.72196,7.040781 -0.91234,-2.431808 -2.54518,-4.719628 -5.09615,-5.995111 1.93896,1.29895 3.27771,3.057531 4.13517,5.080163 0.8162,0.922999 1.51108,1.938963 2.07219,3.022613 l 0.0102,-0.600893 0.53989,-6.700312 c -0.12142,-3.035537 0.94772,-6.11348 3.07579,-8.601975 -2.37965,2.157665 -3.45673,5.13606 -3.7074,8.051872 -1.457,-7.213114 0.96947,-8.062073 5.1542,-9.679954 -2.02967,4.846837 -0.178,5.71405 -3.98054,9.79696 l 0.46462,7.390659 0.0137,0.671415 c 0.58945,-1.206438 1.34012,-2.334417 2.23782,-3.350385 0.85827,-2.022632 2.19622,-3.781213 4.13597,-5.080163 -2.55176,1.275483 -4.18471,3.563303 -5.09751,5.995111 0.48185,-6.513355 2.75867,-6.65995 6.72243,-7.040781 -2.87069,3.628042 -1.53988,4.823367 -5.64841,7.361523 -0.95259,1.558016 -2.04429,4.194924 -2.26311,6.38093 l 0.10318,5.022684 c 1.68386,-3.816359 3.7574,-6.901327 6.10202,-9.142778 0.74352,-0.71087 1.5146,-1.337953 2.30823,-1.876493 1.82071,-2.833043 2.48056,-6.039438 0.6679,-8.881896 l 0.65407,-0.417111 c 1.58375,2.480558 2.09168,5.182543 1.07843,7.969105 1.99735,-0.86937 4.1099,-1.219702 6.28524,-1.005308 l -0.0757,0.773228 c -3.50798,-0.345006 -6.93092,1.777739 -9.84549,4.565548 -0.48899,0.466884 -0.96642,0.974811 -1.42876,1.521286 0.74137,-0.411443 1.45711,-0.711665 2.1453,-0.902591 0.56201,-0.154077 1.10542,-0.236842 1.62888,-0.247046 3.12579,-0.622324 6.30168,-0.388882 9.32214,1.079229 -3.00142,-1.962318 -6.51913,-2.286573 -9.73937,-1.737833 7.37875,-3.60185 8.9785,-1.222308 11.90451,2.841097 -5.58458,-0.795902 -6.18116,1.252016 -11.09715,-1.226846 -2.5589,0.325618 -5.33662,2.728174 -6.94872,4.234833 -1.08411,1.915834 -2.05086,4.099687 -2.87863,6.528435 l 0.12574,6.142718 c 2.44915,-3.698442 5.34025,-5.997939 8.66977,-6.897805 1.43886,-0.387974 2.9513,-0.512915 4.53721,-0.373348 3.09437,0.05136 8.1166,-0.273236 8.66806,-4.10989 l 0.76745,0.110314 c -0.41281,2.871594 -2.1147,4.42825 -4.7516,5.097058 1.65631,0.611097 3.23428,1.703251 5.02574,2.799371 l -0.48627,0.797149 c -4.48505,-2.744953 -8.637,-3.574865 -12.09713,-3.074877 0.86404,0.299428 1.63953,0.774135 2.28566,1.383076 0.36712,0.348182 0.69352,0.740576 0.97164,1.16925 1.78215,1.546113 3.11875,3.501852 3.74583,5.923912 -0.36756,-2.8911 -2.02173,-5.240593 -4.05886,-6.943392 6.12004,2.66786 5.48978,4.912822 4.51679,8.865002 -2.53271,-4.00445 -4.13596,-3.11343 -5.19354,-7.963774 -1.3468,-0.965964 -3.37872,-1.371624 -4.89559,-1.199293 -0.68955,0.07925 -1.40484,0.233329 -2.008,0.603162 -0.94114,0.646132 -1.83659,1.452237 -2.68827,2.419455 4.94786,-0.774591 9.37089,3.01115 12.03739,6.65643 l -0.62845,0.45883 c -2.75243,-3.76273 -7.96774,-7.256077 -13.01435,-5.02132 -0.46234,0.68683 -0.91007,1.42865 -1.34328,2.22671 l 0.0102,0.4806 c 0.55759,-0.22766 1.16086,-0.34818 1.77547,-0.34818 0.67323,0 1.33308,0.14535 1.93636,0.41858 0.4331,0.19479 0.83649,0.45702 1.19396,0.7755 l -0.0239,-0.0647 c 3.48769,1.67015 6.35259,4.23132 8.00675,7.91956 -1.13728,-3.74278 -3.85389,-6.47617 -6.93194,-8.26989 8.6937,2.14972 8.36819,5.25964 7.97137,10.70748 -3.99742,-4.44209 -5.93411,-3.34812 -8.22205,-8.33452 -1.51322,-0.98853 -3.88755,-1.91946 -5.22767,-1.31403 -0.15407,0.0692 -0.30294,0.15102 -0.4433,0.24489 l 0.0952,4.65557 v 0.001 l 0.0589,2.89676 c 0.29806,4.69368 1.62933,11.73003 5.73798,11.73003 v 2.03376 h -14.19828 v -2.03374 c 4.14538,0 5.42301,-7.14486 5.69183,-11.83535 l 0.12448,-7.49656 c -0.11779,-0.0736 -0.24001,-0.13956 -0.36632,-0.19625 -1.34101,-0.60543 -3.71522,0.3255 -5.22766,1.31403 -2.28794,4.98641 -4.22542,3.89243 -8.222846,8.33452 -0.395911,-5.44785 -0.722321,-8.55776 7.972166,-10.70748 -3.07794,1.79372 -5.795452,4.52711 -6.932732,8.26989 1.65416,-3.68825 4.519072,-6.24942 8.006752,-7.91956 l -0.0239,0.0647 c 0.35826,-0.31847 0.76087,-0.58072 1.19487,-0.7755 0.60316,-0.27323 1.26312,-0.41858 1.93669,-0.41858 0.58367,0 1.15769,0.10895 1.69135,0.31541 l 0.0102,-0.59975 c -0.40565,-0.74042 -0.8273,-1.43167 -1.2604,-2.07475 -5.04524,-2.234749 -10.261912,1.2586 -13.014806,5.02133 l -0.626762,-0.45881 c 2.665246,-3.64528 7.088288,-7.431025 12.036028,-6.65644 -0.85157,-0.967208 -1.74713,-1.773314 -2.68736,-2.419449 -0.60407,-0.369832 -1.31924,-0.52391 -2.00755,-0.603159 -1.51732,-0.172335 -3.548792,0.233327 -4.895482,1.199294 -1.05802,4.850344 -2.662184,3.960234 -5.194104,7.963774 -0.973902,-3.95218 -1.603254,-6.197146 4.516004,-8.865002 -2.037712,1.702798 -3.690511,4.052292 -4.058077,6.943392 0.626291,-2.42206 1.962884,-4.3778 3.746297,-5.923912 0.27641,-0.428678 0.60316,-0.821072 0.97163,-1.169251 0.64488,-0.608944 1.421632,-1.08365 2.285782,-1.383078 -3.461606,-0.499989 -7.613561,0.329927 -12.098499,3.074879 L 88.331562,98.06244 c 1.790877,-1.096275 3.370208,-2.188426 5.025729,-2.799526 -2.636905,-0.668804 -4.338911,-2.225461 -4.7516,-5.097058 l 0.768805,-0.110314 c 0.549534,3.836654 5.572218,4.161249 8.666142,4.109893 1.58727,-0.139567 3.099712,-0.01462 4.537772,0.373345 3.28792,0.888872 6.14704,3.141318 8.57533,6.757 l 0.10544,-6.333197 c -0.80021,-2.29587 -1.72898,-4.368502 -2.76263,-6.197151 z m 11.72867,26.330273 c -1.01597,-2.12217 -2.87953,-3.50095 -4.87292,-4.28879 5.36633,0.48978 5.45352,2.36944 5.71179,5.64489 -3.10504,-2.54655 -4.05548,-1.21528 -6.31858,-5.33889 2.22592,0.6772 4.16126,1.94111 5.47971,3.98279 z m 12.31504,-2.08589 c -0.0195,-2.35256 -1.1205,-4.39197 -2.59076,-5.95226 4.64967,2.7224 3.93098,4.46147 2.7733,7.53601 -1.73035,-3.62453 -3.15549,-2.82296 -3.45231,-7.51651 1.72683,1.55757 2.94291,3.52351 3.26977,5.93276 z M 105.28656,66.466558 c 1.77683,1.03059 2.84824,2.747221 3.39607,4.535051 -0.0567,-4.701488 -1.68613,-4.907041 -4.51691,-5.358276 2.00087,2.878624 0.77765,3.613415 4.20819,5.866316 -0.43537,-1.983178 -1.40122,-3.755139 -3.08735,-5.043091 z m 14.64289,0 c -1.77683,1.03059 -2.84813,2.747221 -3.39551,4.535051 0.0567,-4.701488 1.68466,-4.907947 4.5168,-5.358276 -2.00132,2.878624 -0.7781,3.613415 -4.20989,5.866316 0.43661,-1.983178 1.40257,-3.755139 3.0886,-5.043091 z m 20.22746,21.51984 c -0.97968,-2.138162 -2.81842,-3.546071 -4.79808,-4.367255 5.3534,0.579354 5.41009,2.457997 5.61428,5.735707 -3.06252,-2.596092 -4.0328,-1.282058 -6.22549,-5.439795 2.21219,0.713477 4.12587,2.008008 5.40929,4.071343 z m -2.5479,17.700422 c -0.2958,-2.33443 -1.63103,-4.22997 -3.27499,-5.6042 4.93844,2.15415 4.43052,3.96466 3.64482,7.15518 -2.14621,-3.39471 -3.46682,-2.42966 -4.31714,-7.05642 1.89905,1.34328 3.33972,3.15151 3.94731,5.50544 z m -0.043,-25.806828 c -1.45439,-1.449968 -3.38973,-2.040773 -5.25953,-2.107665 4.55671,-1.160744 5.17813,0.359632 6.3459,2.978398 -3.298,-1.189206 -3.69176,0.182875 -6.75518,-2.54972 2.02706,-0.09161 3.98858,0.383096 5.66881,1.678987 z M 133.79183,70.0641 c -3.46149,0.933993 -6.04386,3.345509 -7.77648,6.115177 2.22105,-7.905275 5.06123,-7.516507 10.04049,-6.996109 -4.67677,3.948668 -2.94427,5.740126 -9.75035,7.989512 1.63068,-3.147551 4.06034,-5.698518 7.48634,-7.10858 z m -11.25917,18.233177 c -3.20775,1.60416 -5.25964,4.480632 -6.40712,7.538162 0.60543,-8.189169 3.46591,-8.371592 8.45004,-8.852195 -3.7981,4.800352 -1.74485,6.213136 -7.9682,9.769409 0.97255,-3.409225 2.84677,-6.392042 5.92528,-8.455376 z m 10.23879,-0.563823 c -3.02126,0.816766 -5.27642,2.920803 -6.78796,5.337985 1.93761,-6.899967 4.41726,-6.561199 8.7641,-6.107694 -4.0829,3.447885 -2.57137,5.01123 -8.51116,6.974908 1.42288,-2.747219 3.54426,-4.974837 6.53502,-6.205199 z m 8.99754,9.381887 c -1.70949,-1.705063 -3.98506,-2.399948 -6.18264,-2.478288 5.35703,-1.36494 6.08604,0.4221 7.45937,3.501397 -3.87781,-1.398154 -4.3388,0.215188 -7.94201,-2.997894 2.38442,-0.107592 4.69049,0.451351 6.66528,1.974785 z m -37.12505,18.206189 c 0.79363,-2.21526 2.50675,-3.7777 4.40932,-4.76532 -5.28799,1.03637 -5.18254,2.91502 -5.10409,6.19942 2.82863,-2.8513 3.91012,-1.62446 5.73877,-5.95759 -2.14486,0.90123 -3.94074,2.35698 -5.044,4.52349 z m -12.483752,-2.31174 c 0.01814,-2.35256 1.120045,-4.39197 2.590421,-5.95226 -4.649334,2.7224 -3.931889,4.46147 -2.774204,7.53601 1.73035,-3.62453 3.155036,-2.82296 3.453556,-7.51651 -1.726835,1.55757 -2.943362,3.52351 -3.269773,5.93276 z M 84.542321,87.986398 c 0.979572,-2.136915 2.819783,-3.546071 4.798085,-4.367255 -5.353515,0.579354 -5.410203,2.457997 -5.613486,5.735707 3.061159,-2.596092 4.032,-1.282058 6.224698,-5.440702 -2.212198,0.714384 -4.125877,2.008915 -5.409297,4.07225 z m 2.547339,17.700422 c 0.296366,-2.33443 1.631598,-4.22906 3.275554,-5.6042 -4.938557,2.15415 -4.430518,3.96466 -3.644821,7.15518 2.147007,-3.39471 3.466821,-2.42966 4.317143,-7.05642 -1.899053,1.34328 -3.338818,3.15151 -3.947876,5.50544 z m 0.04342,-25.806828 c 1.454391,-1.449968 3.389838,-2.040773 5.25964,-2.107665 -4.556821,-1.160744 -5.176762,0.359632 -6.344651,2.978398 3.296756,-1.189206 3.690512,0.182875 6.754733,-2.54972 -2.028416,-0.09161 -3.989372,0.383096 -5.669722,1.678987 z M 90.907264,70.0641 c 3.461604,0.933993 6.043977,3.345509 7.776484,6.115177 -2.220141,-7.905275 -5.061124,-7.516507 -10.040384,-6.996109 4.676772,3.948668 2.944156,5.740126 9.750364,7.989512 -1.630694,-3.147551 -4.060348,-5.698518 -7.486466,-7.10858 z m 11.259286,18.233177 c 3.20776,1.60416 5.25964,4.480632 6.40712,7.538162 -0.60452,-8.18781 -3.46602,-8.372498 -8.45016,-8.852195 3.79811,4.800352 1.74498,6.213136 7.96831,9.769409 -0.97299,-3.409225 -2.84687,-6.392042 -5.92527,-8.455376 z M 91.92856,87.733454 c 3.021705,0.816766 5.275513,2.920803 6.787958,5.337985 -1.937607,-6.899967 -4.417259,-6.561199 -8.7649,-6.107694 4.08234,3.447885 2.571261,5.01123 8.51116,6.974908 -1.422987,-2.747219 -3.543011,-4.974837 -6.534218,-6.205199"
       style="fill:#000000;fill-opacity:1;fill-rule:evenodd;stroke:none;stroke-width:0.113376"
       inkscape:label="Tree" />
    <text
       xml:space="preserve"
       style="font-style:normal;font-weight:normal;font-size:19.7556px;line-height:1.25;font-family:sans-serif;letter-spacing:0px;word-spacing:0px;fill:#000000;fill-opacity:1;stroke:none;stroke-width:0.264583"
       x="45.20377"
       y="150.18114"
       id="text1"
       inkscape:label="Business Name"><tspan
         sodipodi:role="line"
         id="tspan1"
         style="font-size:19.7556px;stroke-width:0.264583"
         x="45.20377"
         y="150.18114"><tspan
   style="font-weight:bold;font-size:19.7556px"
   id="tspan2">COEDEN<tspan
   style="font-size:7.05556px"
   id="tspan5"> </tspan></tspan>ARB</tspan></text>
    <text
       xml:space="preserve"
       style="font-style:normal;font-weight:normal;font-size:7.05556px;line-height:1.25;font-family:sans-serif;letter-spacing:0.529167px;word-spacing:0px;fill:#000000;fill-opacity:1;stroke:none;stroke-width:0.264583"
       x="69.113205"
       y="162.13583"
       id="text3"
       inkscape:label="Slogan"><tspan
         sodipodi:role="line"
         id="tspan3"
         style="font-size:7.05556px;letter-spacing:0.529167px;stroke-width:0.264583"
         x="69.113205"
         y="162.13583">TREE CARE SERVICES</tspan></text>
  </g>
</svg>
