<?xml version="1.0" encoding="UTF-8" standalone="no"?>
<!-- Created with Inkscape (http://www.inkscape.org/) -->

<svg
   width="30"
   height="30"
   viewBox="0 0 7.9375 7.9375003"
   version="1.1"
   id="svg1"
   sodipodi:docname="tree.svg"
   inkscape:version="1.3 (0e150ed6c4, 2023-07-21)"
   xmlns:inkscape="http://www.inkscape.org/namespaces/inkscape"
   xmlns:sodipodi="http://sodipodi.sourceforge.net/DTD/sodipodi-0.dtd"
   xmlns="http://www.w3.org/2000/svg"
   xmlns:svg="http://www.w3.org/2000/svg">
  <sodipodi:namedview
     id="namedview1"
     pagecolor="#ffffff"
     bordercolor="#666666"
     borderopacity="1.0"
     inkscape:showpageshadow="2"
     inkscape:pageopacity="0.0"
     inkscape:pagecheckerboard="0"
     inkscape:deskcolor="#d1d1d1"
     inkscape:document-units="mm"
     inkscape:zoom="11.33165"
     inkscape:cx="4.1035507"
     inkscape:cy="32.431288"
     inkscape:window-width="1920"
     inkscape:window-height="991"
     inkscape:window-x="-9"
     inkscape:window-y="-9"
     inkscape:window-maximized="1"
     inkscape:current-layer="layer1" />
  <defs
     id="defs1" />
  <g
     inkscape:label="Layer 1"
     inkscape:groupmode="layer"
     id="layer1"
     transform="translate(-9.5249543,-49.212487)">
    <path
       id="path3086"
       d="m 9.8687609,53.369358 c 0.2102161,-0.209673 0.4900301,-0.295123 0.7603791,-0.304756 -0.6589236,-0.167848 -0.7485563,0.05191 -0.9173932,0.430569 0.4768002,-0.171933 0.5337112,0.02646 0.9766462,-0.368653 -0.293213,-0.01323 -0.576792,0.0555 -0.8196321,0.24284 z m 3.1439061,-1.026796 c -0.198296,-0.185274 -0.539985,-0.480718 -0.854655,-0.520759 -0.604508,0.304827 -0.67787,0.05299 -1.364511,0.150866 0.359716,-0.499679 0.556423,-0.792293 1.463792,-0.349372 -0.395978,-0.06748 -0.828555,-0.0276 -1.19764,0.213702 0.371427,-0.180533 0.761954,-0.20924 1.146348,-0.132712 0.06437,0.0012 0.131193,0.01143 0.200304,0.03038 0.08463,0.02348 0.172642,0.0604 0.263809,0.110992 -0.05691,-0.0672 -0.115468,-0.129659 -0.175529,-0.187072 -0.358629,-0.342818 -0.779494,-0.603853 -1.210885,-0.561428 l -0.0093,-0.09508 c 0.267671,-0.02636 0.527298,0.01672 0.772913,0.123623 -0.124613,-0.342665 -0.06214,-0.674929 0.132602,-0.979965 l 0.08061,0.05129 c -0.223071,0.349539 -0.141984,0.743831 0.08197,1.092212 0.09769,0.06622 0.192511,0.143337 0.283844,0.230753 0.280902,0.268661 0.530226,0.635613 0.73435,1.088447 l 0.01171,-0.696274 c -0.04673,-0.241587 -0.160333,-0.505131 -0.261301,-0.670189 -0.50513,-0.312118 -0.341423,-0.459108 -0.694601,-0.90525 0.487592,0.04683 0.767351,0.06486 0.826604,0.865808 -0.112191,-0.29904 -0.312982,-0.580375 -0.626676,-0.737221 0.238435,0.159732 0.403061,0.375985 0.508504,0.624709 0.100368,0.113502 0.185819,0.238436 0.254817,0.371693 l 0.0012,-0.0739 0.06639,-0.823941 c -0.01493,-0.373282 0.11654,-0.751778 0.37823,-1.057789 -0.292627,0.265329 -0.425075,0.631584 -0.455901,0.990142 -0.179168,-0.887 0.119218,-0.991397 0.633815,-1.190348 -0.249589,0.596018 -0.02189,0.702659 -0.489488,1.204736 l 0.05714,0.908834 0.0017,0.08256 c 0.07249,-0.148356 0.164795,-0.287064 0.275186,-0.411998 0.105541,-0.248725 0.27007,-0.464978 0.508602,-0.62471 -0.313791,0.156846 -0.514596,0.438181 -0.626843,0.737221 0.05925,-0.80095 0.339235,-0.818977 0.826659,-0.865808 -0.35301,0.446142 -0.189359,0.593132 -0.694587,0.90525 -0.117141,0.19159 -0.251387,0.515851 -0.278295,0.784666 l 0.01268,0.617642 c 0.207065,-0.469299 0.462049,-0.84866 0.750369,-1.124292 0.09143,-0.08741 0.186251,-0.164529 0.283844,-0.230753 0.223894,-0.348381 0.305036,-0.742673 0.08213,-1.092211 l 0.08043,-0.0513 c 0.194754,0.305036 0.257214,0.6373 0.132615,0.979966 0.245615,-0.106908 0.505395,-0.149988 0.772899,-0.123624 l -0.0093,0.09508 c -0.431378,-0.04243 -0.852299,0.21861 -1.210704,0.561428 -0.06013,0.05741 -0.118841,0.119873 -0.175697,0.187073 0.09117,-0.05059 0.179182,-0.08752 0.263809,-0.110992 0.06911,-0.01895 0.135935,-0.02913 0.200304,-0.03038 0.384379,-0.07653 0.774922,-0.04782 1.146348,0.132713 -0.369085,-0.241307 -0.801661,-0.281181 -1.197655,-0.213702 0.90737,-0.442921 1.104091,-0.150308 1.463904,0.349371 -0.686738,-0.09787 -0.7601,0.153961 -1.364623,-0.150865 -0.314669,0.04004 -0.656247,0.335484 -0.854488,0.520759 -0.133312,0.235591 -0.252195,0.50414 -0.353985,0.802805 l 0.01546,0.755373 c 0.301174,-0.454799 0.656693,-0.73757 1.066126,-0.848227 0.176937,-0.0477 0.362923,-0.06307 0.557942,-0.04591 0.380518,0.0063 0.998104,-0.0336 1.065917,-0.505395 l 0.09438,0.01356 c -0.05076,0.353121 -0.260045,0.544543 -0.584307,0.626788 0.203678,0.07515 0.397721,0.209449 0.618018,0.34424 l -0.0598,0.09803 c -0.55153,-0.337549 -1.062097,-0.439603 -1.48759,-0.37812 0.106251,0.03682 0.201614,0.0952 0.281069,0.170077 0.04515,0.04282 0.08528,0.09107 0.119482,0.143784 0.219153,0.190126 0.383515,0.430625 0.460628,0.728467 -0.0452,-0.35552 -0.248612,-0.644439 -0.499121,-0.853833 0.752585,0.328068 0.675082,0.604133 0.555432,1.090134 -0.311449,-0.492429 -0.508602,-0.382859 -0.638653,-0.97931 -0.165616,-0.118785 -0.415483,-0.168669 -0.602012,-0.147477 -0.0848,0.0097 -0.172755,0.02869 -0.246925,0.07417 -0.115733,0.07946 -0.225846,0.178583 -0.330578,0.297521 0.608441,-0.09525 1.152343,0.370284 1.480244,0.818545 l -0.07728,0.05642 c -0.338468,-0.462705 -0.979797,-0.892284 -1.600381,-0.617474 -0.05685,0.08446 -0.111911,0.175682 -0.165184,0.273819 l 0.0012,0.0591 c 0.06856,-0.02799 0.142752,-0.04282 0.218331,-0.04282 0.08279,0 0.163929,0.01788 0.238114,0.05148 0.05326,0.02396 0.102864,0.0562 0.146823,0.09536 l -0.0029,-0.008 c 0.428882,0.205379 0.78118,0.520328 0.984594,0.973872 -0.139853,-0.460251 -0.473915,-0.796378 -0.852425,-1.016953 1.069068,0.264353 1.02904,0.646781 0.980244,1.316705 -0.491565,-0.546245 -0.729721,-0.411719 -1.01107,-1.0249 -0.186083,-0.12156 -0.478054,-0.236037 -0.642848,-0.161586 -0.01895,0.0085 -0.03726,0.01857 -0.05452,0.03011 l 0.01171,0.572498 v 1.58e-4 l 0.0072,0.356216 c 0.03665,0.577183 0.20036,1.442447 0.705602,1.442447 v 0.25009 h -1.74597 v -0.25009 c 0.50976,0 0.666871,-0.878607 0.699928,-1.455399 l 0.01531,-0.921855 c -0.01448,-0.0091 -0.02952,-0.01716 -0.04504,-0.02414 -0.164905,-0.07445 -0.456863,0.04003 -0.642849,0.161588 -0.281348,0.61318 -0.519601,0.478655 -1.011166,1.0249 -0.04869,-0.669924 -0.08883,-1.052352 0.980341,-1.316705 -0.378496,0.220576 -0.71267,0.556702 -0.852522,1.016953 0.203413,-0.453546 0.555712,-0.768493 0.984594,-0.973873 l -0.0029,0.008 c 0.04406,-0.03916 0.09356,-0.07141 0.146935,-0.09536 0.07417,-0.0336 0.155327,-0.05147 0.238156,-0.05147 0.07177,0 0.142361,0.01339 0.207986,0.03879 l 0.0012,-0.07375 c -0.04988,-0.09105 -0.101734,-0.176059 -0.154992,-0.255138 -0.620416,-0.274809 -1.261912,0.15477 -1.600436,0.617475 l -0.07707,-0.05642 c 0.327747,-0.448261 0.87165,-0.913796 1.480076,-0.818545 -0.104717,-0.118939 -0.214845,-0.218066 -0.330466,-0.297522 -0.07428,-0.04548 -0.162228,-0.06442 -0.246869,-0.07417 -0.186585,-0.02119 -0.436397,0.02869 -0.601999,0.147478 -0.130106,0.59645 -0.327371,0.486993 -0.638722,0.97931 -0.119762,-0.486002 -0.197154,-0.762066 0.555335,-1.090134 -0.250578,0.209394 -0.453824,0.498312 -0.499024,0.853832 0.07701,-0.297842 0.241377,-0.53834 0.460683,-0.728467 0.03399,-0.05271 0.07417,-0.100967 0.119484,-0.143782 0.0793,-0.07488 0.174817,-0.133257 0.281082,-0.170079 -0.425675,-0.06149 -0.936242,0.04057 -1.487758,0.37812 l -0.0598,-0.09803 c 0.220225,-0.134809 0.414437,-0.269111 0.618017,-0.344258 -0.324261,-0.08224 -0.533558,-0.273667 -0.584306,-0.626789 l 0.09454,-0.01356 c 0.06758,0.471794 0.685218,0.51171 1.065679,0.505395 0.195188,-0.01716 0.381173,-0.0018 0.558012,0.04591 0.404317,0.109305 0.755905,0.38629 1.054513,0.830912 l 0.01297,-0.778797 c -0.09837,-0.282317 -0.212586,-0.537189 -0.339695,-0.762059 z m 1.44228,3.237849 c -0.124934,-0.260966 -0.354097,-0.430514 -0.599225,-0.527397 0.6599,0.06023 0.670621,0.291373 0.702381,0.694155 -0.381827,-0.31315 -0.498703,-0.149443 -0.776998,-0.656526 0.273722,0.08327 0.511711,0.238701 0.673842,0.489768 z m 1.514387,-0.256505 c -0.0024,-0.289294 -0.137788,-0.540083 -0.318587,-0.731951 0.571773,0.334774 0.483395,0.548629 0.341033,0.926706 -0.212781,-0.44571 -0.388032,-0.34714 -0.424532,-0.924309 0.21235,0.191535 0.361891,0.433289 0.402086,0.729554 z m -3.351405,-5.723444 c 0.218498,0.126732 0.35025,0.337827 0.417617,0.557678 -0.007,-0.578145 -0.207345,-0.603421 -0.555447,-0.65891 0.246048,0.353985 0.09563,0.444343 0.517483,0.721383 -0.05354,-0.243872 -0.172309,-0.461771 -0.379653,-0.620151 z m 1.800643,0 c -0.218498,0.126732 -0.350235,0.337827 -0.417547,0.557678 0.007,-0.578145 0.207163,-0.603533 0.555433,-0.65891 -0.246103,0.353985 -0.09568,0.444343 -0.517692,0.721383 0.05369,-0.243872 0.172475,-0.461771 0.379806,-0.620151 z m 2.487381,2.646305 c -0.120472,-0.26293 -0.346582,-0.436062 -0.590023,-0.537043 0.658311,0.07124 0.665283,0.302261 0.690392,0.705322 -0.3766,-0.319242 -0.495915,-0.157655 -0.765552,-0.668934 0.272034,0.08774 0.50736,0.246926 0.665183,0.500655 z m -0.313317,2.17663 c -0.03637,-0.287065 -0.200568,-0.520161 -0.402727,-0.689151 0.607283,0.264897 0.544823,0.487537 0.448206,0.879877 -0.263921,-0.417451 -0.426316,-0.298776 -0.530881,-0.867733 0.233527,0.165184 0.410687,0.387544 0.485402,0.677007 z m -0.0053,-3.173478 c -0.178847,-0.178304 -0.416836,-0.250955 -0.646767,-0.25918 0.560342,-0.142738 0.636758,0.04422 0.780359,0.366254 -0.405557,-0.146237 -0.453978,0.02249 -0.830689,-0.31354 0.249268,-0.01126 0.490478,0.04711 0.697097,0.206466 z m -0.464112,-1.207065 c -0.425662,0.114853 -0.743218,0.411398 -0.956278,0.751986 0.273123,-0.972115 0.622382,-0.924309 1.234684,-0.860315 -0.575106,0.48557 -0.362058,0.705867 -1.199007,0.982475 0.200527,-0.387057 0.499303,-0.70075 0.920601,-0.874146 z m -1.384551,2.242142 c -0.39446,0.197264 -0.646781,0.550985 -0.787887,0.926972 0.07445,-1.007026 0.426205,-1.029459 1.039106,-1.088559 -0.467055,0.590301 -0.214567,0.764032 -0.979854,1.201349 0.119595,-0.419234 0.350069,-0.786032 0.728635,-1.039762 z m 1.259068,-0.06933 c -0.371526,0.100437 -0.648844,0.359172 -0.834718,0.656414 0.238268,-0.848492 0.543192,-0.806833 1.077726,-0.751066 -0.502077,0.423988 -0.316204,0.616233 -1.046621,0.857708 0.174971,-0.337827 0.435839,-0.611758 0.803613,-0.763056 z m 1.106432,1.153695 c -0.210217,-0.209673 -0.490045,-0.295123 -0.760282,-0.304756 0.658756,-0.167848 0.748404,0.05191 0.917282,0.430569 -0.476856,-0.171933 -0.533544,0.02646 -0.976632,-0.368653 0.293213,-0.01323 0.576791,0.0555 0.819632,0.24284 z m -4.565287,2.238824 c 0.09759,-0.272411 0.308256,-0.464545 0.542215,-0.585993 -0.650265,0.127443 -0.6373,0.358461 -0.627652,0.762345 0.347838,-0.350626 0.48083,-0.19976 0.705699,-0.732607 -0.263753,0.110825 -0.484593,0.289839 -0.620262,0.556255 z m -1.535112,-0.284279 c 0.0023,-0.289294 0.137732,-0.540083 0.318545,-0.731951 -0.571731,0.334774 -0.483507,0.548629 -0.341145,0.926706 0.212781,-0.44571 0.387976,-0.34714 0.424685,-0.924309 -0.21235,0.191535 -0.361947,0.433289 -0.402085,0.729554 z m -0.936773,-3.077139 c 0.120458,-0.262778 0.34675,-0.436062 0.590023,-0.537043 -0.6583242,0.07124 -0.6652952,0.302261 -0.6902931,0.705322 0.3764321,-0.319242 0.4958161,-0.157655 0.7654531,-0.669046 -0.272034,0.08785 -0.50736,0.247038 -0.665183,0.500767 z m 0.313247,2.17663 c 0.03644,-0.287065 0.200638,-0.520049 0.402797,-0.689151 -0.607297,0.264897 -0.544823,0.487537 -0.448205,0.879877 0.264018,-0.417451 0.426315,-0.298776 0.53088,-0.867733 -0.233527,0.165184 -0.410576,0.387544 -0.485472,0.677007 z m 0.0053,-3.173478 c 0.178847,-0.178304 0.41685,-0.250955 0.646781,-0.25918 -0.560355,-0.142738 -0.63659,0.04422 -0.780206,0.366254 0.405404,-0.146237 0.453825,0.02249 0.830633,-0.31354 -0.249435,-0.01126 -0.490575,0.04711 -0.697208,0.206466 z m 0.464113,-1.207065 c 0.425675,0.114853 0.743231,0.411398 0.956277,0.751986 -0.27301,-0.972115 -0.622367,-0.924309 -1.23467,-0.860315 0.575106,0.48557 0.362045,0.705867 1.199008,0.982475 -0.200528,-0.387057 -0.499304,-0.70075 -0.920615,-0.874146 z m 1.38456,2.242142 c 0.39446,0.197264 0.646781,0.550985 0.787887,0.926972 -0.07434,-1.006859 -0.426219,-1.02957 -1.03912,-1.088559 0.467054,0.590301 0.21458,0.764032 0.979867,1.201349 -0.11961,-0.419234 -0.350043,-0.786032 -0.728594,-1.039762 z m -1.258971,-0.06933 c 0.37158,0.100437 0.648733,0.359172 0.834718,0.656414 -0.238268,-0.848492 -0.543192,-0.806833 -1.077824,-0.751066 0.502008,0.423988 0.31619,0.616233 1.046622,0.857708 -0.174985,-0.337827 -0.435686,-0.611758 -0.803516,-0.763056"
       style="fill:#000000;fill-opacity:1;fill-rule:evenodd;stroke:none;stroke-width:0.0139419" />
  </g>
</svg>
